<?xml version="1.0" encoding="utf-8"?>
<!-- Generator: Adobe Illustrator 26.5.0, SVG Export Plug-In . SVG Version: 6.00 Build 0)  -->
<svg version="1.1" xmlns="http://www.w3.org/2000/svg" xmlns:xlink="http://www.w3.org/1999/xlink" x="0px" y="0px"
	 viewBox="0 0 228.7 39.1" style="enable-background:new 0 0 228.7 39.1;" xml:space="preserve">
<style type="text/css">
	.グラフィックスタイル{fill:#FED136;}
</style>
<g id="レイヤー_1">
</g>
<g id="編集モード">
	<g>
		<g>
			<g>
				<path class="グラフィックスタイル" d="M9,32c1.9,1.8,3.5,2.7,6.1,2.7c2.9,0,5.3-1.5,5.3-4.5C20.4,24,7.5,27.5,7.5,19
					c0-4.5,3.9-7.1,8.1-7.1c3,0,5,1.2,7.3,2.9L21.3,17c-1.7-1.3-3.6-2.3-5.9-2.3c-2.8,0-5.1,1.4-5.1,4.1c0,6.1,12.9,2.1,12.9,11.2
					c0,5.1-4,7.5-8.7,7.5c-3,0-5.8-1.5-7.7-3.7L9,32z"/>
			</g>
			<g>
				<path class="グラフィックスタイル" d="M27.1,6.4L30,4.9v7.6h6.6v2.8H30v15.1c0,3,1.3,4.1,4.4,4.1c0.8,0,1.5,0,2.3-0.1
					V37c-0.8,0.1-1.7,0.3-2.5,0.3c-4.5,0-7-2.6-7-7V15.2h-3.3l0.7-2.8h2.6V6.4z"/>
			</g>
			<g>
				<path class="グラフィックスタイル" d="M40.8,29c1,2.2,4.1,5.7,8.7,5.7c3.6,0,6.6-1.9,9.3-4.1V34
					c-2.1,2.1-6,3.5-9.1,3.5c-7.6,0-12.7-5.7-12.7-13.1c0-7.4,5.5-12.5,12.8-12.5c4.5,0,8.2,2.9,9.7,5.7L40.8,29z M55,16.8
					c-1.1-1.2-3-2.1-5.2-2.1c-5.8,0-10,4.2-10,9.8c0,0.6,0,1.4,0.2,2L55,16.8z"/>
			</g>
			<g>
				<path class="グラフィックスタイル" d="M64.3,17.3L64.3,17.3c1.9-4.2,4.6-5.5,9.2-5.5l-1.2,2.9c-0.3,0-0.7,0-1.1,0
					c-3.1,0-6.8,3.8-6.8,10v12.3l-2.8,0.6V12.4l2.8-0.6V17.3z"/>
			</g>
			<g>
				<path class="グラフィックスタイル" d="M74.7,29c1,2.2,4.1,5.7,8.7,5.7c3.6,0,6.6-1.9,9.3-4.1V34
					c-2.1,2.1-6.1,3.5-9.1,3.5c-7.6,0-12.7-5.7-12.7-13.1c0-7.4,5.5-12.5,12.8-12.5c4.5,0,8.2,2.9,9.7,5.7L74.7,29z M88.9,16.8
					c-1.1-1.2-3-2.1-5.2-2.1c-5.8,0-10,4.2-10,9.8c0,0.6,0,1.4,0.2,2L88.9,16.8z"/>
			</g>
			<g>
				<path class="グラフィックスタイル" d="M117.5,24.7c0,6.6-5.3,12.8-12.5,12.8c-7.2,0-12.5-6.2-12.5-12.8
					c0-6.6,5.3-12.8,12.5-12.8C112.2,11.8,117.5,18.1,117.5,24.7z M95.3,24.7c0,5.2,4.2,10,9.7,10c5.5,0,9.7-4.8,9.7-10
					c0-5.2-4.2-10-9.7-10C99.5,14.7,95.3,19.4,95.3,24.7z"/>
			</g>
			<g>
				<path class="グラフィックスタイル" d="M141.7,34.4c-1.9,1.9-5.6,3.1-8.8,3.1c-7.1,0-12.6-5.4-12.6-13.1
					c0-7.5,6.3-12.6,13.2-12.6c3,0,6,1.2,8.4,2.9l-1.8,2.3c-1.5-1.3-3.7-2.3-6.8-2.3c-5.9,0-10.2,4.2-10.2,10.1
					c0,5.3,4.1,9.9,9.6,9.9c2.7,0,5.2-0.9,7.3-2.5L141.7,34.4z"/>
			</g>
			<g>
				<path class="グラフィックスタイル" d="M146.2,11.8v16.2c0,4.4,1.8,6.9,6,6.9c4.6,0,7.5-1.7,7.5-11.5v-11l2.8-0.6v25.1
					l-2.8,0.4v-4h-0.1c-1,2.2-3.9,4.2-7.7,4.2c-6.2,0-8.5-3.5-8.5-9.1v-16L146.2,11.8z"/>
			</g>
			<g>
				<path class="グラフィックスタイル" d="M165.1,2.2l2.8-0.6v15.5c2.9-3.3,6.3-5.2,10.6-5.2c6.7,0,12.3,4.8,12.3,12.5
					c0,7.1-5.5,13.1-12.7,13.1c-8.2,0-13-5.3-13-13.4V2.2z M178.1,34.7c5.8,0,9.7-4.2,9.9-9.9c0-5.9-4.2-10.1-10-10.1
					c-5.6,0-10.1,4.2-10.1,10.2C167.9,30.7,172.6,34.7,178.1,34.7z"/>
			</g>
			<g>
				<path class="グラフィックスタイル" d="M195.8,29c1,2.2,4.1,5.7,8.7,5.7c3.6,0,6.6-1.9,9.3-4.1V34
					c-2.1,2.1-6.1,3.5-9.1,3.5c-7.6,0-12.7-5.7-12.7-13.1c0-7.4,5.5-12.5,12.8-12.5c4.5,0,8.2,2.9,9.7,5.7L195.8,29z M210,16.8
					c-1.1-1.2-3-2.1-5.2-2.1c-5.8,0-10,4.2-10,9.8c0,0.6,0.1,1.4,0.2,2L210,16.8z"/>
			</g>
		</g>
	</g>
</g>
</svg>
